<?xml version="1.0" encoding="utf-8"?>
<!-- Generator: Adobe Illustrator 27.5.0, SVG Export Plug-In . SVG Version: 6.00 Build 0)  -->
<svg version="1.1" xmlns="http://www.w3.org/2000/svg" xmlns:xlink="http://www.w3.org/1999/xlink" x="0px" y="0px"
	 viewBox="0 0 500 500" style="enable-background:new 0 0 500 500;" xml:space="preserve">
<g id="Floor">
	<g id="Bush_00000106110539216354073070000016250295456332530864_">
		<path style="fill:#EBEBEB;" d="M484.278,320.176c6.835-4.871,6.785-17.498-1.899-20.206c5.995-6.005,4.181-18.938-4.508-19.736
			c2.126-5.306,1.08-12.57-5.735-13.91c2.159-6.506-3.861-11.017-9.899-8.681c-0.263-6.857-9.975-7.252-12.162-2.424
			c0.118-2.655-3.858-7.571-6.407-7.582c4.404-3.447,3.187-10.354-0.591-11.273c5.139-3.898,2.386-12.794-3.752-12.709
			c4.117-6.486-4.663-13.264-10.118-11.265c3.089-7.292-11.345-13.092-14.47-5.367c0.123-0.305-1.212-1.574-1.432-1.785
			c-0.56-0.537-1.192-0.996-1.868-1.375c-1.381-0.775-2.94-1.203-4.511-1.358c-3.256-0.319-6.68,0.489-9.441,2.245
			c-1.461,0.929-2.757,2.151-3.647,3.646c-0.431,0.724-0.764,1.506-0.977,2.322c-0.299,1.143,0.012,2.248-0.3,3.363
			c-1.833-0.475-3.848-0.207-5.492,0.733c-1.644,0.94-2.898,2.539-3.419,4.359c-0.508-1.733-1.081-3.469-2.04-4.999
			c-0.813-1.298-1.901-2.38-3.262-3.091c-1.454-0.759-2.697-1.689-4.451-1.579c5.239-6.728-5.388-14.548-11.036-9.21
			c-2.626-6.175-12.011-4.875-11.393,2.366c-2.085-3.772-6.173-3.505-9.531-1.489c-4.634,2.784-4.013,7.742-1.465,11.757
			c-1.924-2.296-7.79-3.562-8.683,0.24c-1.339-2.021-4.789-2.524-6.618-0.755c-1.735-6.232-12.888-7.045-14.997,0.634
			c-4.304-2.478-8.851,4.531-7.757,8.484l-48.591-0.109v-0.017L250,221.413l-3.827-0.009v0.017l-48.591,0.109
			c1.095-3.953-3.452-10.962-7.756-8.484c-2.11-7.68-13.263-6.866-14.997-0.634c-1.83-1.769-5.28-1.266-6.618,0.755
			c-0.892-3.801-6.759-2.536-8.683-0.24c2.548-4.015,3.169-8.973-1.465-11.757c-3.358-2.017-7.446-2.283-9.53,1.489
			c0.618-7.241-8.767-8.541-11.393-2.366c-5.649-5.337-16.276,2.482-11.036,9.21c-1.754-0.11-2.996,0.82-4.451,1.579
			c-1.361,0.711-2.449,1.793-3.262,3.091c-0.959,1.53-1.532,3.266-2.04,4.999c-0.521-1.821-1.775-3.42-3.419-4.359
			c-1.644-0.939-3.659-1.208-5.492-0.733c-0.312-1.115-0.001-2.22-0.3-3.363c-0.213-0.816-0.546-1.597-0.977-2.322
			c-0.89-1.494-2.186-2.717-3.647-3.646c-2.762-1.756-6.185-2.564-9.441-2.245c-1.571,0.154-3.13,0.583-4.511,1.358
			c-0.676,0.379-1.308,0.839-1.868,1.375c-0.22,0.211-1.555,1.479-1.432,1.785c-3.125-7.726-17.559-1.926-14.47,5.367
			c-5.455-1.999-14.235,4.778-10.118,11.265c-6.138-0.085-8.891,8.811-3.752,12.709c-3.778,0.919-4.995,7.826-0.591,11.273
			c-2.549,0.011-6.525,4.927-6.407,7.582c-2.187-4.828-11.899-4.433-12.162,2.424c-6.037-2.336-12.057,2.175-9.899,8.681
			c-6.815,1.34-7.86,8.603-5.735,13.91c-8.688,0.799-10.502,13.731-4.508,19.736c-8.684,2.708-8.734,15.334-1.899,20.206
			c-4.524,2.16-4.973,12.658,2.401,15.556c-0.191,0.17-0.372,0.348-0.545,0.533c-4.341,4.634-0.713,12.268,5.637,12.268h222.959
			h7.653h222.959c6.35,0,9.978-7.634,5.637-12.268c-0.173-0.185-0.355-0.363-0.546-0.533
			C489.251,332.833,488.802,322.335,484.278,320.176z"/>
		<g id="Bush">
			<g>
				<path style="fill:#E0E0E0;" d="M77.362,217.564c2.549-2.872,6.947-3.134,9.819-0.584c0.519,0.461,0.941,0.986,1.284,1.547
					c1.437-1.193,3.343-1.814,5.341-1.553c3.048,0.398,5.364,2.699,5.92,5.543c-1.294-1.529-3.13-2.613-5.277-2.894
					c-3.606-0.471-6.967,1.448-8.483,4.536c-0.032-0.385-0.011-0.784,0.042-1.189c0.128-0.982,0.459-1.887,0.939-2.684
					c-0.219-0.264-0.455-0.518-0.72-0.754c-2.719-2.414-6.579-2.712-9.567-1.008C76.849,218.188,77.091,217.87,77.362,217.564z"/>
				<path style="fill:#E0E0E0;" d="M151.919,215.69c-1.966-2.215-5.358-2.417-7.574-0.451c-0.4,0.356-0.726,0.76-0.99,1.194
					c-1.109-0.921-2.578-1.399-4.119-1.198c-2.351,0.307-4.137,2.082-4.566,4.275c0.998-1.179,2.414-2.016,4.07-2.232
					c2.781-0.363,5.374,1.117,6.543,3.499c0.025-0.297,0.008-0.605-0.033-0.917c-0.099-0.757-0.354-1.455-0.724-2.07
					c0.169-0.203,0.351-0.399,0.555-0.581c2.097-1.862,5.074-2.092,7.379-0.778C152.314,216.171,152.128,215.926,151.919,215.69z"/>
				<path style="fill:#E0E0E0;" d="M69.86,254.665c-0.793-1.088-4.317-0.652-5.447-0.439c-2.01,0.378-3.862,1.623-4.975,3.337
					c-1.253,1.929-1.564,4.44-0.821,6.617c-2.283-0.526-4.835,0.389-6.263,2.247c-1.428,1.858-1.657,4.559-0.562,6.63
					c-4.48-1.007-11.36-0.222-14.863,3.169c-1.922,1.86-2.656,5.061-1.202,7.306c-0.271-0.418-3.797-0.459-6.701,1.342
					c-1.783,1.105-2.891,3.199-2.996,5.302c-0.119,2.355,0.973,5.54,2.061,6.677c-0.231-0.445-2.947,1.447-3.191,1.672
					c-0.856,0.792-1.575,1.855-1.908,2.982c-0.617,2.084,1.016,4.584,3.249,4.648c-1.762,0.782-3.433,1.909-4.484,3.526
					s-1.382,3.785-0.498,5.498c1.166,2.259,3.92,3.091,6.387,3.704c-1.492,1.684-2.322,4.062-1.755,6.238
					c0.567,2.177,2.741,3.947,4.973,3.667c-2.376,1.499-3.61,4.604-2.913,7.325c0.697,2.722,3.272,4.85,6.076,5.022
					c-1.245-0.077-2.187,2.52-2.502,3.342c-0.571,1.488-1.351,2.552-2.097,4.056h-6.215c-6.35,0-9.978-7.634-5.637-12.268
					c0.173-0.185,0.355-0.363,0.545-0.533c-7.374-2.898-6.925-13.396-2.401-15.556c-6.835-4.871-6.785-17.498,1.899-20.206
					c-5.994-6.005-4.181-18.938,4.508-19.736c-2.125-5.307-1.08-12.57,5.735-13.91c-2.159-6.506,3.861-11.017,9.899-8.681
					c0.263-6.857,9.975-7.252,12.162-2.424c-0.118-2.655,3.858-7.571,6.407-7.582c-4.403-3.447-3.186-10.354,0.591-11.273
					c-5.139-3.898-2.386-12.794,3.752-12.709c-3.269-5.151,1.594-10.48,6.466-11.458c-1.768,1.967-3.377,4.594-2.091,7.308
					c1.151,2.428,4.276,2.852,6.347,3.87c-4.922,1.662-7.18,6.603-3.519,10.933c-5.013,0.631-5.661,7.299-3.654,10.002
					c1.236-1.072,3.795-1.31,5.662-0.954c2.517,0.479,3.872,1.75,6.135,4.275C71.556,244.186,67.027,250.781,69.86,254.665z"/>
			</g>
		</g>
		<g>
			<path style="fill:#E0E0E0;" d="M420.43,227.676c-2.549-2.872-6.947-3.134-9.819-0.584c-0.52,0.461-0.941,0.986-1.284,1.547
				c-1.437-1.193-3.343-1.814-5.341-1.553c-3.048,0.398-5.364,2.699-5.92,5.543c1.294-1.529,3.13-2.613,5.277-2.894
				c3.606-0.471,6.967,1.448,8.483,4.536c0.032-0.385,0.011-0.784-0.042-1.189c-0.128-0.982-0.459-1.887-0.939-2.683
				c0.22-0.264,0.455-0.518,0.72-0.754c2.719-2.414,6.579-2.712,9.567-1.008C420.942,228.3,420.701,227.982,420.43,227.676z"/>
			<path style="fill:#E0E0E0;" d="M348.081,215.69c1.966-2.215,5.358-2.417,7.574-0.451c0.401,0.356,0.726,0.76,0.99,1.194
				c1.109-0.921,2.578-1.399,4.119-1.198c2.351,0.307,4.137,2.082,4.566,4.275c-0.998-1.179-2.414-2.016-4.07-2.232
				c-2.781-0.363-5.374,1.117-6.543,3.499c-0.025-0.297-0.008-0.605,0.033-0.917c0.099-0.757,0.354-1.455,0.724-2.07
				c-0.169-0.203-0.351-0.399-0.555-0.581c-2.097-1.862-5.074-2.092-7.379-0.778C347.686,216.171,347.872,215.926,348.081,215.69z"
				/>
			<path style="fill:#E0E0E0;" d="M430.14,254.665c0.793-1.088,4.317-0.652,5.447-0.439c2.01,0.378,3.862,1.623,4.975,3.337
				c1.253,1.929,1.565,4.44,0.821,6.617c2.283-0.526,4.835,0.389,6.263,2.247c1.428,1.858,1.657,4.559,0.562,6.63
				c4.48-1.007,11.36-0.222,14.863,3.169c1.922,1.86,2.656,5.061,1.202,7.306c0.271-0.418,3.797-0.459,6.701,1.342
				c1.783,1.105,2.891,3.199,2.996,5.302c0.119,2.355-0.973,5.54-2.06,6.677c0.231-0.445,2.947,1.447,3.191,1.672
				c0.856,0.792,1.575,1.855,1.908,2.982c0.617,2.084-1.016,4.584-3.249,4.648c1.762,0.782,3.433,1.909,4.484,3.526
				c1.051,1.617,1.382,3.785,0.498,5.498c-1.166,2.259-3.92,3.091-6.387,3.704c1.491,1.684,2.322,4.062,1.755,6.238
				c-0.567,2.177-2.741,3.947-4.973,3.667c2.376,1.499,3.61,4.604,2.913,7.325c-0.698,2.722-3.272,4.85-6.076,5.022
				c1.245-0.077,2.187,2.52,2.502,3.342c0.571,1.488,1.351,2.552,2.097,4.056h6.215c6.35,0,9.978-7.634,5.637-12.268
				c-0.173-0.185-0.355-0.363-0.546-0.533c7.374-2.898,6.925-13.396,2.401-15.556c6.835-4.871,6.785-17.498-1.899-20.206
				c5.994-6.005,4.181-18.938-4.508-19.736c2.125-5.307,1.08-12.57-5.735-13.91c2.159-6.506-3.861-11.017-9.899-8.681
				c-0.263-6.857-9.975-7.252-12.162-2.424c0.118-2.655-3.858-7.571-6.407-7.582c4.404-3.447,3.186-10.354-0.591-11.273
				c5.139-3.898,2.386-12.794-3.752-12.709c3.269-5.151-1.594-10.48-6.466-11.458c1.768,1.967,3.377,4.594,2.091,7.308
				c-1.151,2.428-4.276,2.852-6.346,3.87c4.922,1.662,7.18,6.603,3.519,10.933c5.013,0.631,5.661,7.299,3.654,10.002
				c-1.236-1.072-3.795-1.31-5.662-0.954c-2.517,0.479-3.872,1.75-6.135,4.275C428.444,244.186,432.973,250.781,430.14,254.665z"/>
		</g>
	</g>
	<path id="Floor_00000013876646643919197920000017874447876317227658_" style="fill:#F5F5F5;" d="M88.029,256.072
		C-1.422,307.717-1.42,391.451,88.034,443.096c89.454,51.645,234.486,51.645,323.937,0c89.451-51.645,89.449-135.378-0.005-187.023
		C322.512,204.427,177.48,204.427,88.029,256.072z"/>
</g>
<g id="Plants">
	<g id="Plants_1_">
		<g id="XMLID_00000177471369402834191440000007862896503853233566_">
			<g id="XMLID_00000016047532555728134570000012214407795756843176_">
				<path style="fill:#BA68C8;" d="M424.42,195.12c-7.46,10.72-16.42,31.7-17.09,58.35c-4.21-2.3-8.53-4.49-12.96-6.57
					c-1.65-10.21-3.42-26.02-1.84-40.83c3.68-34.51,26.4-47.5,35.04-44.52C436.21,164.52,438.71,174.57,424.42,195.12z"/>
			</g>
			<g id="XMLID_00000107561789029438799510000011202710443911869344_" style="opacity:0.65;">
				<path style="fill:#FFFFFF;" d="M424.42,195.12c-7.46,10.72-16.42,31.7-17.09,58.35c-4.21-2.3-8.53-4.49-12.96-6.57
					c-1.65-10.21-3.42-26.02-1.84-40.83c3.68-34.51,26.4-47.5,35.04-44.52C436.21,164.52,438.71,174.57,424.42,195.12z"/>
			</g>
			<g id="XMLID_00000085251258330951081300000014632539347959124103_">
				<path id="XMLID_00000139290566296455265220000017162416541459974835_" style="fill:#FFFFFF;" d="M402.944,250.867
					c0.036-0.002,0.07-0.006,0.105-0.013c0.415-0.079,0.688-0.479,0.609-0.894c-6.047-31.832,5.073-67.602,18.843-82.487
					c0.286-0.309,0.268-0.795-0.043-1.081c-0.311-0.284-0.795-0.268-1.081,0.043c-14.021,15.156-25.358,51.51-19.222,83.81
					C402.227,250.625,402.569,250.886,402.944,250.867z"/>
			</g>
		</g>
		<g id="XMLID_1183_">
			<g id="XMLID_1044_">
				<path style="fill:#BA68C8;" d="M449.64,241.1c-2.36,1.96-4.94,4.22-5.18,7.28c-0.12,1.51,0.38,3,0.88,4.44
					c0.5,1.46,1,2.92,1.5,4.38c0.51,1.48,1.02,2.97,1.32,4.52c0.57,2.97,0.38,5.89-0.84,8.66c-1.05,2.39-2.7,4.53-4.79,6.09
					c-0.2,0.15-0.5,0.39-0.85,0.67c-8.47-7.46-18.37-14.52-29.71-21.07c-4-2.31-8.11-4.51-12.32-6.61
					c-0.21-0.96-0.38-1.94-0.52-3.02c-0.26-1.94-0.13-3.89,0.8-5.61c2.12-3.94,6.16-5.77,7.35-10.08
					c1.35-4.88-3.12-10.23-1.09-14.86c1.03-2.35,3.49-3.74,5.93-4.52c2.45-0.78,5.04-1.12,7.37-2.2c6.03-2.79,9-9.83,14.64-13.35
					c1.74-1.09,3.7-2.12,5.74-2.36c2.21-0.25,4.66-0.17,6.37,1.25c2.09,1.73,2.38,4.9,1.62,7.51c-0.76,2.6-2.36,4.87-3.53,7.31
					c-0.54,1.14-1,2.35-1.06,3.61c-0.08,2.03,0.91,3.96,2.13,5.59c1.7,2.26,3.87,4.11,5.73,6.23c1.86,2.13,3.45,4.68,3.61,7.5
					C454.94,236.11,452.25,238.93,449.64,241.1z"/>
			</g>
			<g id="XMLID_00000096744945403115106880000008699267350103333265_" style="opacity:0.3;">
				<path style="fill:#FFFFFF;" d="M449.64,241.1c-2.36,1.96-4.94,4.22-5.18,7.28c-0.12,1.51,0.38,3,0.88,4.44
					c0.5,1.46,1,2.92,1.5,4.38c0.51,1.48,1.02,2.97,1.32,4.52c0.57,2.97,0.38,5.89-0.84,8.66c-1.05,2.39-2.7,4.53-4.79,6.09
					c-0.2,0.15-0.5,0.39-0.85,0.67c-8.47-7.46-18.37-14.52-29.71-21.07c-4-2.31-8.11-4.51-12.32-6.61
					c-0.21-0.96-0.38-1.94-0.52-3.02c-0.26-1.94-0.13-3.89,0.8-5.61c2.12-3.94,6.16-5.77,7.35-10.08
					c1.35-4.88-3.12-10.23-1.09-14.86c1.03-2.35,3.49-3.74,5.93-4.52c2.45-0.78,5.04-1.12,7.37-2.2c6.03-2.79,9-9.83,14.64-13.35
					c1.74-1.09,3.7-2.12,5.74-2.36c2.21-0.25,4.66-0.17,6.37,1.25c2.09,1.73,2.38,4.9,1.62,7.51c-0.76,2.6-2.36,4.87-3.53,7.31
					c-0.54,1.14-1,2.35-1.06,3.61c-0.08,2.03,0.91,3.96,2.13,5.59c1.7,2.26,3.87,4.11,5.73,6.23c1.86,2.13,3.45,4.68,3.61,7.5
					C454.94,236.11,452.25,238.93,449.64,241.1z"/>
			</g>
			<g id="XMLID_1186_">
				<path style="fill:#FFFFFF;" d="M438.64,200.5c-8.24,8.53-18.45,34.59-19,60.23c-0.47-0.31-0.93-0.61-1.41-0.9
					c0.78-25.72,11.06-51.73,19.37-60.34c0.28-0.28,0.73-0.29,1.02-0.01C438.91,199.76,438.92,200.21,438.64,200.5z"/>
			</g>
			<g id="XMLID_1184_">
				<path id="XMLID_1185_" style="fill:#FFFFFF;" d="M422.154,236.673c0.07-0.004,0.142-0.017,0.212-0.043
					c9.074-3.315,20.538-4.396,20.652-4.406c0.399-0.037,0.691-0.39,0.655-0.787c-0.037-0.397-0.355-0.697-0.787-0.655
					c-0.117,0.012-11.762,1.11-21.016,4.49c-0.375,0.136-0.569,0.552-0.432,0.927C421.55,236.504,421.845,236.689,422.154,236.673z"
					/>
			</g>
		</g>
	</g>
	<g id="Plants_00000143593413969843641140000006982221716124098187_">
		<g id="XMLID_00000174591470148085612890000010955323208639472314_">
			<path style="fill:#BA68C8;" d="M90.92,254.44c-0.97,0.53-1.93,1.08-2.89,1.63c-3.35,1.94-6.58,3.92-9.68,5.95
				c-0.52-5.05-1.57-12-3.7-20.99c-7.59-32.01-22.83-41.55-30.22-54.16c-7.77-13.28-0.53-22.97,10.85-22.2
				c11.02,0.73,23.85,10.28,30.77,30.34C93.78,217.38,92.77,240.33,90.92,254.44z"/>
			<path style="opacity:0.5;fill:#FFFFFF;" d="M90.92,254.44c-0.97,0.53-1.93,1.08-2.89,1.63c-3.35,1.94-6.58,3.92-9.68,5.95
				c-0.52-5.05-1.57-12-3.7-20.99c-7.59-32.01-22.83-41.55-30.22-54.16c-7.77-13.28-0.53-22.97,10.85-22.2
				c11.02,0.73,23.85,10.28,30.77,30.34C93.78,217.38,92.77,240.33,90.92,254.44z"/>
			<g id="XMLID_00000091715039458887689300000014367726850982322600_">
				<path style="fill:#FFFFFF;" d="M82.933,258.974c-0.309-0.035-0.53-0.312-0.495-0.621c4.491-39.833-14.214-73.481-28.928-84.651
					c-0.246-0.189-0.296-0.541-0.108-0.788c0.19-0.249,0.54-0.296,0.788-0.108c14.926,11.332,33.904,45.403,29.364,85.673
					C83.52,258.788,83.242,259.009,82.933,258.974z"/>
			</g>
		</g>
		<g id="XMLID_00000149342106341437184740000011107894368338297480_">
			<path style="fill:#BA68C8;" d="M84.05,258.42c-4.03,2.45-7.87,4.96-11.52,7.54c-1.95-6.65-4.94-13.05-11.97-20.95
				c-9.82-11.03-24.28-20.81-21.98-29.67c2.3-8.85,13.75-9.23,22.01-4.27C67.78,215.39,82.97,232.57,84.05,258.42z"/>
			<path style="opacity:0.65;fill:#FFFFFF;" d="M84.05,258.42c-4.03,2.45-7.87,4.96-11.52,7.54c-1.95-6.65-4.94-13.05-11.97-20.95
				c-9.82-11.03-24.28-20.81-21.98-29.67c2.3-8.85,13.75-9.23,22.01-4.27C67.78,215.39,82.97,232.57,84.05,258.42z"/>
			<g id="XMLID_00000132789970342627760050000013798002686480788369_">
				<path style="fill:#FFFFFF;" d="M78.91,261.66c-0.36,0.22-0.72,0.45-1.07,0.69c-1.73-18.95-19.47-42.55-28.7-47.07
					c-0.28-0.13-0.39-0.47-0.26-0.75c0.14-0.28,0.47-0.4,0.76-0.26C59.22,218.95,76.89,242.19,78.91,261.66z"/>
			</g>
		</g>
	</g>
</g>
<g id="Clouds">
	<path id="Cloud_3_" style="fill:#F5F5F5;" d="M141.732,96.407c-1.487-0.674-3.257-0.737-4.536-0.837
		c-1.468-0.116-1.934-0.407-2.216-0.725c-3.572-5.111-9.475-5.306-12.999-3.841c-0.864-3.517-5.118-6.569-9.802-5.541
		c0.16-4.569-5.674-9.479-10.916-10.595c-5.027-1.07-9.41-0.621-12.278,2.685c-3.07-5.996-15.107-7.685-21.62-4.513
		c-3.746,1.824-6.923,3.696-8.476,7.129c-1.025,2.266-1.391,3.774-1.411,6.824c-2.538-2.237-7.621-2.843-11.011-1.531
		c-3.655,1.414-3.933,4.169-4.113,6.971c-3.583-0.903-5.981-0.319-6.654-0.12c-2.303,0.683-3.63,2.49-3.314,3.951
		c-1.822-0.102-6.163,1.371-5.664,3.295c0.56,2.159,5.517,1.941,7.369,1.873c1.533-0.056,3.518-0.467,5.183-0.814
		c0.506,0.25,1.85,0.518,2.695,0.512c3.157-0.022,4.493-1.375,5-2.55c1.541,3.244,7.023,5.715,10.898,6.707
		c7.298,1.868,17.624,0.73,22.119-4.725c0.471,0.982,1.26,1.895,2.174,2.648c1.784,1.469,4.191,2.497,6.752,2.736
		c2.997,0.28,11.04,0.665,13.307-4.101c1.605,3.168,8.765,4.612,14.21,3.838c2.037-0.289,4.323-0.996,6.097-1.84
		c1.43-0.681,2.243-1.344,3.505-2.102c1.073-0.644,1.557-0.636,2.988-0.205c3.737,1.127,8.075,1.587,11.889-0.012
		C143.952,100.249,144.587,97.701,141.732,96.407z"/>
	<path id="Cloud_00000059312100829890027810000003470252385760207289_" style="fill:#F5F5F5;" d="M436.552,61.646
		c-1.286-0.583-2.817-0.637-3.922-0.724c-1.27-0.1-1.672-0.352-1.916-0.627c-3.088-4.419-8.193-4.588-11.24-3.321
		c-0.747-3.041-4.425-5.68-8.476-4.791c0.139-3.951-4.906-8.196-9.439-9.161c-4.347-0.925-8.136-0.537-10.617,2.322
		c-2.655-5.185-13.063-6.646-18.694-3.903c-3.239,1.577-5.986,3.196-7.329,6.164c-0.887,1.959-1.203,3.264-1.22,5.9
		c-2.195-1.935-6.59-2.458-9.521-1.324c-3.16,1.222-3.401,3.605-3.557,6.028c-3.099-0.781-5.172-0.276-5.754-0.104
		c-1.991,0.59-3.139,2.153-2.866,3.417c-1.575-0.088-5.329,1.186-4.897,2.849c0.484,1.867,4.771,1.678,6.371,1.619
		c1.325-0.049,3.042-0.404,4.482-0.704c0.438,0.216,1.6,0.448,2.331,0.443c2.729-0.02,3.885-1.189,4.323-2.205
		c1.332,2.805,6.073,4.942,9.424,5.799c6.31,1.615,15.24,0.631,19.126-4.085c0.407,0.849,1.089,1.639,1.88,2.29
		c1.542,1.27,3.624,2.159,5.838,2.366c2.591,0.242,9.547,0.575,11.506-3.546c1.387,2.74,7.579,3.988,12.288,3.319
		c1.761-0.25,3.738-0.861,5.272-1.591c1.237-0.589,1.939-1.163,3.031-1.817c0.928-0.557,1.346-0.55,2.584-0.177
		c3.232,0.974,6.982,1.372,10.28-0.011C438.472,64.968,439.021,62.764,436.552,61.646z"/>
	<path id="Cloud_4_" style="fill:#F5F5F5;" d="M166.048,51.473c-0.899-0.408-1.97-0.445-2.742-0.506
		c-0.888-0.07-1.169-0.246-1.34-0.438c-2.159-3.09-5.728-3.208-7.859-2.322c-0.522-2.126-3.094-3.972-5.926-3.35
		c0.097-2.762-3.43-5.731-6.6-6.405c-3.039-0.647-5.689-0.375-7.423,1.623c-1.856-3.625-9.133-4.647-13.071-2.729
		c-2.265,1.103-4.186,2.235-5.125,4.31c-0.62,1.37-0.841,2.282-0.853,4.126c-1.535-1.353-4.608-1.719-6.657-0.926
		c-2.21,0.855-2.378,2.521-2.487,4.215c-2.166-0.546-3.616-0.193-4.023-0.073c-1.392,0.413-2.195,1.505-2.004,2.389
		c-1.101-0.062-3.726,0.829-3.424,1.992c0.339,1.305,3.336,1.174,4.455,1.132c0.927-0.034,2.127-0.282,3.133-0.492
		c0.306,0.151,1.118,0.313,1.63,0.31c1.909-0.014,2.716-0.831,3.023-1.542c0.931,1.961,4.246,3.455,6.589,4.055
		c4.412,1.13,10.656,0.441,13.373-2.856c0.285,0.593,0.762,1.146,1.314,1.601c1.078,0.888,2.534,1.51,4.082,1.654
		c1.812,0.169,6.675,0.402,8.045-2.479c0.97,1.916,5.299,2.788,8.591,2.32c1.231-0.175,2.614-0.602,3.686-1.113
		c0.865-0.412,1.356-0.813,2.119-1.271c0.649-0.389,0.941-0.385,1.807-0.124c2.26,0.681,4.882,0.959,7.188-0.007
		C167.39,53.796,167.774,52.255,166.048,51.473z"/>
	<path id="Cloud_00000150067882021524558820000004861375986652440704_" style="fill:#F5F5F5;" d="M459.432,102.587
		c-0.855-0.388-1.873-0.424-2.608-0.481c-0.844-0.067-1.112-0.234-1.275-0.417c-2.054-2.939-5.449-3.052-7.475-2.209
		c-0.497-2.022-2.943-3.778-5.637-3.186c0.092-2.627-3.263-5.451-6.277-6.093c-2.891-0.615-5.411-0.357-7.061,1.544
		c-1.766-3.448-8.687-4.42-12.433-2.596c-2.154,1.049-3.981,2.125-4.875,4.1c-0.589,1.303-0.8,2.171-0.811,3.924
		c-1.46-1.287-4.383-1.635-6.332-0.88c-2.102,0.813-2.262,2.397-2.365,4.009c-2.061-0.52-3.44-0.184-3.827-0.069
		c-1.324,0.393-2.088,1.432-1.906,2.272c-1.048-0.059-3.544,0.789-3.257,1.895c0.322,1.242,3.173,1.116,4.238,1.077
		c0.881-0.033,2.023-0.269,2.98-0.468c0.291,0.144,1.064,0.298,1.55,0.295c1.815-0.013,2.584-0.791,2.875-1.466
		c0.886,1.865,4.039,3.286,6.267,3.857c4.197,1.074,10.135,0.42,12.72-2.717c0.271,0.564,0.724,1.09,1.25,1.523
		c1.026,0.845,2.41,1.436,3.883,1.573c1.723,0.161,6.349,0.382,7.652-2.358c0.923,1.822,5.04,2.652,8.172,2.207
		c1.171-0.166,2.486-0.573,3.506-1.058c0.823-0.392,1.29-0.773,2.016-1.209c0.617-0.37,0.895-0.366,1.719-0.118
		c2.149,0.648,4.644,0.913,6.837-0.007C460.709,104.796,461.074,103.331,459.432,102.587z"/>
</g>
<g id="Shadows">
	
		<ellipse id="Shadow_00000182506847246171816980000016510575872763582122_" style="fill:#E0E0E0;" cx="255.602" cy="366.139" rx="142.464" ry="82.251"/>
</g>
<g id="Character">
	<g id="Character_3_">
		<g id="Bottom_2_">
			<path style="fill:#FFA8A7;" d="M386.24,329.989c-2.649,15.306-13.693,22.142-24.769,27.493
				c-13.843,6.708-38.965,15.68-57.197,22.804c-6.612,2.585-12.305,4.924-16.246,6.825c-9.378,3.867-19.29,10.072-26.895,15.733
				c-1.933,1.431-3.61,3.183-5.437,4.753c-3.632,3.14-7.327,6.238-11.108,9.207c-3.845,3.033-7.648,5.875-11.706,8.62
				c-3.151,2.136-6.943,3.899-8.417,4.475c-1.485,0.587-3.023,1.047-4.582,1.388c-0.78,0.171-1.57,0.31-2.361,0.417
				c-0.78,0.107-1.421,0.214-2.189-0.043c-0.801-0.267-1.549-0.705-2.393-0.79c-0.684-0.064-1.378,0.117-2.062,0.235
				c-0.684,0.117-1.41,0.171-2.029-0.139c-0.822-0.406-1.292-1.357-2.136-1.709c-0.748-0.32-1.613-0.085-2.425-0.15
				c-0.833-0.064-1.624-0.481-2.2-1.09c-0.288-0.31-0.491-0.673-0.673-1.068c-0.043-0.085-0.417-0.876-0.299-0.876
				c-2.98,0.086-4.369-0.31-4.71-1.186c-1.506-3.898,2.307-8.801,6.793-10.649c2.126-5.554,5.479-10.275,13.661-15.957
				c8.758-6.088,17.442-7.263,20.647-21.757c2.82-12.764,11.653-16.566,18.382-15.402c6.355,1.1,12.582,1.015,17.068-2.275
				c3.226-2.371,5.095-4.048,7.466-6.505c0.919-0.951,1.912-2.008,3.087-3.279l-20.582-1.506v-11.578l28.145-60.028
				c10.179,2.35,45.683,10.884,64.279,19.589C377.204,305.765,388.857,314.854,386.24,329.989z"/>
			<path style="fill:#F28F8F;" d="M361.13,330.7c-0.056-0.081-0.533-0.816-0.597-0.718c1.638-2.491,2.023-3.883,1.453-4.631
				c-2.533-3.322-8.708-2.632-12.63,0.223c-5.849-1.09-11.626-0.693-20.744,3.31c-9.765,4.288-15.307,11.079-29.335,6.234
				c-12.362-4.271-20.22,1.277-22.744,7.619c-0.785,1.972-1.427,3.842-2.287,5.649l9.265,0.68
				c-4.218,4.553-6.076,6.493-10.557,9.784c-4.113,3.02-9.702,3.323-15.507,2.505c-4.41,1.645-9.948,3.385-15.104,4.905
				c-2.115,2.445-3.851,5.797-4.839,10.271c-3.2,14.492-11.887,15.668-20.645,21.752c-8.178,5.681-11.535,10.399-13.663,15.956
				c-4.483,1.852-8.299,6.756-6.79,10.652c0.339,0.876,1.728,1.276,4.708,1.181c-0.117,0.004,0.26,0.794,0.3,0.884
				c0.177,0.394,0.38,0.75,0.677,1.068c0.569,0.609,1.359,1.018,2.194,1.083c0.814,0.063,1.675-0.167,2.428,0.152
				c0.844,0.356,1.308,1.305,2.13,1.71c0.622,0.306,1.355,0.248,2.039,0.137c4.996-0.81,22.396-8.178,36.046-20.209
				c17.901-15.778,41.05-33.322,62.433-41.884c2.234-0.895,4.601-1.417,6.894-2.147c4.583-1.459,9.145-2.988,13.655-4.657
				c4.595-1.7,9.005-3.455,13.472-5.478c3.463-1.568,6.952-3.886,8.21-4.837c1.277-0.964,2.476-2.03,3.583-3.185
				c0.553-0.577,1.084-1.177,1.589-1.797c0.492-0.605,0.918-1.1,1.103-1.887c0.191-0.82,0.211-1.693,0.578-2.451
				c0.303-0.623,0.816-1.113,1.274-1.633c0.458-0.52,0.885-1.12,0.949-1.81c0.084-0.912-0.482-1.804-0.345-2.709
				c0.122-0.808,0.768-1.422,1.14-2.149c0.381-0.745,0.445-1.633,0.224-2.436C361.571,331.416,361.373,331.056,361.13,330.7z"/>
			<path style="fill:#F28F8F;" d="M361.13,330.7c-0.056-0.081-0.533-0.816-0.597-0.718c1.638-2.491,2.023-3.883,1.453-4.631
				c-2.533-3.322-8.708-2.632-12.63,0.223c-5.849-1.09-11.626-0.693-20.744,3.31c-9.765,4.288-15.307,11.079-29.335,6.234
				c-12.362-4.271-20.22,1.277-22.744,7.619c-0.785,1.972-1.427,3.842-2.287,5.649l9.265,0.68
				c-4.218,4.553-6.076,6.493-10.557,9.784c-4.113,3.02-9.702,3.323-15.507,2.505c-4.41,1.645-9.948,3.385-15.104,4.905
				c-2.115,2.445-3.851,5.797-4.839,10.271c-3.2,14.492-11.887,15.668-20.645,21.752c-8.178,5.681-11.535,10.399-13.663,15.956
				c-4.483,1.852-8.299,6.756-6.79,10.652c0.339,0.876,1.728,1.276,4.708,1.181c-0.117,0.004,0.26,0.794,0.3,0.884
				c0.177,0.394,0.38,0.75,0.677,1.068c0.569,0.609,1.359,1.018,2.194,1.083c0.814,0.063,1.675-0.167,2.428,0.152
				c0.844,0.356,1.308,1.305,2.13,1.71c0.622,0.306,1.355,0.248,2.039,0.137c4.996-0.81,22.396-8.178,36.046-20.209
				c17.901-15.778,41.05-33.322,62.433-41.884c2.234-0.895,4.601-1.417,6.894-2.147c4.583-1.459,9.145-2.988,13.655-4.657
				c4.595-1.7,9.005-3.455,13.472-5.478c3.463-1.568,6.952-3.886,8.21-4.837c1.277-0.964,2.476-2.03,3.583-3.185
				c0.553-0.577,1.084-1.177,1.589-1.797c0.492-0.605,0.918-1.1,1.103-1.887c0.191-0.82,0.211-1.693,0.578-2.451
				c0.303-0.623,0.816-1.113,1.274-1.633c0.458-0.52,0.885-1.12,0.949-1.81c0.084-0.912-0.482-1.804-0.345-2.709
				c0.122-0.808,0.768-1.422,1.14-2.149c0.381-0.745,0.445-1.633,0.224-2.436C361.571,331.416,361.373,331.056,361.13,330.7z"/>
			<path style="fill:#455A64;" d="M265.075,364.254c-10.366-7.185-16.986-5.976-16.986-5.976l-18.338,5.129l5.464-8.737
				l-53.168-83.706c-11.884,23.555-18.355,39.308-28.372,68.344c-10.13,29.367-18.276,59.037-13.579,79.042
				c4.697,20.005,25.41,18.945,33.44,19.849c8.03,0.904,29.834,0.826,46.852-10.452c17.018-11.278,54.523-43.07,54.523-43.07
				S275.441,371.44,265.075,364.254z"/>
			<path style="fill:#455A64;" d="M234.36,355.701l0.854-1.029l22.306-7.513l11.582,0.85c0,0,17.524-15.211,26.131-34.609
				c8.49-19.132,10.329-33.921,10.329-33.921l-14.275-3.975c0,0-5.643,17.468-35.661,21.896
				c-30.018,4.428-59.575-10.103-70.146-21.023c0,0-4.765,6.873-10.794,20.4c-5.495,12.33-10.996,26.068-10.996,26.068
				s16.634,1.336,34.486,9.611C216.029,340.73,234.36,355.701,234.36,355.701z"/>
			<path style="fill:#455A64;" d="M292.153,271.977c0,0,48.652,14.354,67.225,24.561c18.573,10.208,30.231,17.257,27.941,32.556
				c-2.291,15.299-10.763,22.62-29.832,31.111c-19.069,8.491-53.289,20.785-53.289,20.785s1.846-13.729-5.331-21.614
				c-7.177-7.886-19.642-7-19.642-7l3.175-2.805l-24.72-2.404L292.153,271.977z"/>
			<path style="fill:#37474F;" d="M361.986,325.351c-2.533-3.322-8.708-2.632-12.63,0.223c-5.849-1.09-11.626-0.693-20.744,3.31
				c-9.765,4.288-15.307,11.079-29.335,6.234c-12.362-4.27-20.22,1.277-22.743,7.619c-0.785,1.972-1.428,3.842-2.288,5.65
				l9.265,0.68c-1.177,1.27-2.162,2.325-3.08,3.274c3.419,0.025,12.532,0.717,18.275,7.027c3.135,3.445,4.547,8.003,5.145,12.046
				c1.845-0.854,3.685-1.672,5.509-2.402c2.234-0.895,4.6-1.417,6.894-2.147c4.583-1.459,9.145-2.988,13.655-4.657
				c4.595-1.7,9.005-3.455,13.472-5.478c3.463-1.568,6.952-3.886,8.21-4.837c1.277-0.964,2.476-2.03,3.583-3.185
				c0.554-0.577,1.084-1.177,1.589-1.797c0.492-0.605,0.918-1.1,1.103-1.887c0.191-0.82,0.211-1.693,0.578-2.451
				c0.303-0.623,0.816-1.113,1.274-1.633c0.458-0.52,0.885-1.12,0.949-1.81c0.084-0.912-0.482-1.803-0.345-2.709
				c0.122-0.808,0.767-1.422,1.14-2.149c0.38-0.745,0.445-1.633,0.223-2.436c-0.115-0.419-0.313-0.779-0.557-1.135
				c-0.056-0.081-0.533-0.816-0.597-0.718C362.171,327.491,362.556,326.099,361.986,325.351z"/>
			<path style="fill:#37474F;" d="M319.17,315.183c-17.951,9.775-26.105,17.155-26.105,17.155s-3.232-4.505-10.491-3.935
				c-7.259,0.57-10.077,5.489-14.307,11.306c-1.186,1.63-3.09,3.122-4.969,4.338l-1.246-0.305
				c9.566-10.405,13.029-22.896,13.029-22.896s-6.914,15.067-16.607,21.685c-4.441,3.032-13.22,5.445-17.788,3.392
				c-4.568-2.053-10.189-11.762-10.189-11.762c3.435,5.651,3.324,17.323,3.279,17.94c-0.013,0.183-0.479,1.055-1.128,2.193
				c-1.287,2.257-3.426,3.895-5.937,4.563c-7.077,1.882-18.742,5.282-31.218,10.167c-19.332,7.569-25.199,21.708-25.199,21.708
				c9.48-13.938,37.495-20.668,59.456-27.323l3.935-6.293c0,0-0.049,0.011-0.121,0.027l1.65-2.471l22.306-7.513l0.969,0.071
				l25.023,1.837c13.82-14.546,29.285-26.932,38.026-32.272c8.895-5.435,17.866-6.827,25.946-6.628
				C347.484,310.166,334.354,306.914,319.17,315.183z"/>
			<path style="fill:#FFA8A7;" d="M358.474,325.306c-0.059-0.082-0.465-0.721-0.591-0.729c1.627-2.482,2.006-3.867,1.432-4.61
				c-2.527-3.335-8.696-2.644-12.619,0.213c-5.846-1.091-11.635-0.695-20.741,3.305c-9.77,4.293-15.307,11.087-29.344,6.243
				c-12.363-4.275-20.215,1.281-22.74,7.614c-2.379,5.994-3.426,11.069-13.42,16.218c-2.734,1.408-7.316,3.074-12.306,4.702
				c0.669-0.088,7.123-0.795,16.926,5.988c8.237,5.714,9.604,15.27,9.806,18.931c10.184-7.951,20.719-15.123,31.826-19.561
				c2.231-0.9,4.598-1.413,6.884-2.151c4.586-1.461,9.144-2.986,13.662-4.656c4.599-1.697,9.012-3.452,13.471-5.473
				c3.47-1.572,6.951-3.885,8.206-4.84c1.287-0.969,2.485-2.023,3.593-3.176c0.539-0.585,1.079-1.186,1.588-1.805
				c0.493-0.604,0.916-1.101,1.102-1.88c0.189-0.827,0.207-1.694,0.567-2.464c0.304-0.615,0.821-1.106,1.278-1.633
				c0.456-0.511,0.885-1.119,0.956-1.81c0.084-0.911-0.482-1.797-0.351-2.706c0.125-0.798,0.776-1.425,1.133-2.147
				c0.391-0.752,0.457-1.633,0.234-2.435C358.907,326.026,358.706,325.666,358.474,325.306z"/>
		</g>
		<g id="Top_2_">
			<g>
				<path style="fill:#263238;" d="M238.026,222.117c15.786-1.151,29.893-7.181,43.128-15.438c3.868-2.413,7.253-5.571,10.203-9.03
					c5.072-5.949,9.175-12.949,10.514-20.651c1.339-7.702-0.381-16.161-5.665-21.922c-4.796-5.23-12.368-8.331-14.696-15.034
					c-1.739-5.008,0.029-10.766-1.912-15.699c-2.372-6.029-9.835-9.687-10.247-16.152c-0.228-3.577,2.384-5.674,4.52-8.182
					c6.445-7.569,6.911-19.165,2.415-28.03c-4.497-8.866-11.71-14.558-21.2-17.518c-9.834-3.067-26.58-3.679-36.011,1.219
					c-8.377,4.35-15.326,10.235-17.102,19.777c-8.501,2.885-15.445,11.412-16.108,20.453c-0.297,4.051,0.498,8.314-1.08,12.056
					c-1.885,4.47-6.57,6.926-10.475,9.804c-4.797,3.534-8.946,8.506-9.737,14.412c-0.72,5.381,1.377,11.121-0.659,16.154
					c-2.238,5.534-8.49,8.032-13.14,11.774c-7.388,5.946-9.85,15.082-7.444,24.138c1.359,5.113,4.134,11.16,8.062,14.748
					c4.317,3.943,9.88,6.847,15.102,9.384C188.586,219.113,213.53,223.904,238.026,222.117z"/>
			</g>
			<path style="fill:#BA68C8;" d="M262.399,153.509c15.063,1.184,24.018,2.898,39.832,19.459
				c9.51,9.959,64.125,75.812,64.125,75.812l-46.65,7.914L273,211.258L262.399,153.509z"/>
			<g id="Top_29_">
				<path style="fill:#37474F;" d="M299.286,274.071c-3.997-13.528-6.803-16.711-6.815-20.713c0.091-6.634-0.96-20.533-0.96-20.533
					c18.589-14.715,10.289-38.362,3.16-47.824c-13.157-17.464-23.705-24.563-32.273-31.491l-15.685-1.297l-34.63-0.067
					l-19.948,3.424c-5.091,2.336-11.97,12.184-14.651,19.911c-4.781,13.778-4.877,22.329-2.511,36.122
					c2.991,17.433,5.973,27.343,7.771,35.801c2.476,11.642-1.89,21.039-9.778,41.457
					C217.452,327.929,291.514,304.594,299.286,274.071z"/>
				<g>
					<g id="XMLID_7297_">
						<g id="XMLID_00000005235535986264901800000009675189613962239411_">
							<path id="XMLID_7314_" style="fill:#FFA8A7;" d="M264.302,73.111c3.064,1.433,7.934,8.748,8.774,36.949
								c0.68,22.831-7.338,30.914-11.789,32.862c-3.716,1.626-8.565,1.976-14.489,1.808l-0.087,7.77
								c4.541,5.058,10.976,22.995,6.494,30.999c-10.981-2.209-36.154-17.446-40.937-31.456l0.246-24.388
								c0,0-5.587,6.053-12.884,0.389c-6.025-4.674-7.076-14.065-2.875-18.861c4.2-4.795,12.883-4.122,16.427,2.157
								c0,0,8.881,6.094,8.283-8.294c-0.673-16.216,5.867-32.48,16.937-29.033C258.242,80.191,258.023,70.007,264.302,73.111z"/>
							<path style="fill:#F28F8F;" d="M239.322,110.299c0.005,4.343-3.511,7.868-7.854,7.873c-4.343,0.005-7.868-3.511-7.873-7.854
								c-0.005-4.343,3.511-7.868,7.854-7.873C235.792,102.44,239.317,105.957,239.322,110.299z"/>
							<path style="fill:#F28F8F;" d="M264.339,108.054c0.005,4.343,3.53,7.859,7.873,7.854c0.285,0,0.566-0.018,0.843-0.048
								c0.07-1.82,0.082-3.748,0.021-5.8c-0.108-3.623-0.283-6.896-0.512-9.861c-0.124-0.006-0.246-0.019-0.371-0.018
								C267.85,100.186,264.334,103.711,264.339,108.054z"/>
							<g>
								<path style="fill:#B16668;" d="M248.448,128.606c0.614,1.004,2.654,1.567,4.012,0.362c1.147-1.018,1.356-2.946,0.578-4.203
									c-0.337-0.545-0.607-0.829-0.977-1.086c0.337-0.389,1.024-0.729,1.532-0.812c-1.313-0.356-2.65-0.26-3.734,0.304
									c-0.724,0.377-1.206,0.97-1.577,1.681C247.822,125.699,247.71,127.399,248.448,128.606z"/>
								<path style="fill:#F28F8F;" d="M252.865,127.998c-0.139,0.219-0.397,0.535-0.599,0.7c-1.114,0.906-2.919,0.692-3.513-0.28
									c-0.434-0.71-0.54-1.581-0.476-2.351C250.176,126.112,251.627,126.73,252.865,127.998z"/>
							</g>
							<g id="XMLID_7299_">
								<path id="XMLID_7300_" style="fill:#F28F8F;" d="M246.798,144.73c-7.387-0.532-22.889-4.417-26.517-12.504
									c0,0,0.772,7.028,5.537,10.579c7.27,5.417,20.936,6.676,20.936,6.676L246.798,144.73z"/>
							</g>
						</g>
						<g>
							<polygon id="XMLID_10823_" style="fill:#F28F8F;" points="248.73,95.69 251.095,116.559 262.475,111.46 							"/>
							<g>
								<path id="XMLID_00000070106572426836386840000010482495632900166842_" style="fill:#263238;" d="M259.612,90.646
									l7.089,2.552c0.662-2.025-0.39-4.238-2.347-4.942C262.395,87.551,260.273,88.621,259.612,90.646z"/>
							</g>
							<g>
								<g>
									<path style="fill:#263238;" d="M236.511,104.322c0.46,0.184,0.945,0.305,1.439,0.355c2.276,0.228,5.107-1.137,5.558-3.028
										c0.015-0.063-0.017-0.31-0.102-0.26c-0.569,0.334-1.022,0.575-1.943,0.918c-1.036,0.386-2.238,0.759-3.333,0.731
										c-1.218-0.031-2.43-0.285-3.557-0.748c-0.053-0.022-0.109-0.044-0.165-0.033c-0.319,0.064,0.006,0.563,0.114,0.682
										c0.268,0.293,0.582,0.577,0.908,0.803C235.768,103.974,236.131,104.17,236.511,104.322z"/>
								</g>
								<g>
									<path style="fill:#263238;" d="M266.344,102.674c-0.445,0.219-0.919,0.378-1.407,0.465
										c-2.251,0.404-5.18-0.738-5.776-2.589c-0.02-0.061-0.007-0.31,0.081-0.267c0.593,0.289,1.064,0.494,2.008,0.765
										c1.062,0.304,2.29,0.584,3.38,0.471c1.211-0.126,2.4-0.472,3.488-1.021c0.051-0.026,0.105-0.052,0.162-0.046
										c0.323,0.039,0.038,0.562-0.061,0.689c-0.244,0.312-0.536,0.621-0.843,0.871
										C267.059,102.27,266.711,102.493,266.344,102.674z"/>
								</g>
								<path id="XMLID_00000069379942012129405020000000487141521277389461_" style="fill:#263238;" d="M239.838,91.443
									l-6.779,3.287c-0.872-1.944-0.06-4.256,1.812-5.163C236.743,88.66,238.967,89.499,239.838,91.443z"/>
							</g>
						</g>
					</g>
				</g>
			</g>
			<path style="fill:#BA68C8;" d="M192.137,155.57c-17.387,2.589-26.508,8.867-35.002,24.487
				c-5.66,10.409-29.665,54.562-37.709,70.593c-5.906,11.772-8.711,18.231-7.214,27.997l47.613-10.775l30.25-51.452
				C196.615,206.183,204.171,167.239,192.137,155.57z"/>
			<g>
				<path style="fill:#FFA8A7;" d="M189.146,274.917c-4.686,0.656-28.121,9.075-36.394,11.531
					c-6.56,1.948-15.504,3.412-23.488,2.342c-9.563-1.281-15.868-6.578-16.786-8.841c-1.009-2.486,0.466-8.014,7.534-14.805
					c9.312-8.946,12.551-10.027,22.402-11.69c10.878-1.837,30.322-2.136,35.377-2.502c9.42-0.681,12.592-0.663,20.589-3.921
					c8.193-3.338,14.182-4.038,19.33-5.119c5.147-1.081,9.708-4.68,12.713-5.747c2.086-0.741,2.959,2.549,0.888,5.939
					c-1.429,2.339-4.547,4.423-8.378,6.148c-3.11,1.597-1.463,2.209,2.113,2.428c3.575,0.218,15.702,2.564,19.103,3.785
					c3.4,1.221,6.535,3.158,5.545,5.274c0,0,5.719,0.596,5.425,3.609c-0.294,3.014-4.982,4.299-4.982,4.299
					s-0.279,2.512-4.918,3.122c-2.615,0.344-10.24-0.041-13.021,0.115c-3.17,0.178-6.624,0.707-6.624,0.707
					s9.896,1.528,12.939,2.562c3.455,1.174,2.481,3.565-1.965,4.417c-4.445,0.852-16.25-1.167-20.113-0.804
					c-4.948,0.465-7.633-0.329-14.637-0.92C196.969,276.436,193.832,274.261,189.146,274.917z"/>
				<path style="fill:#F28F8F;" d="M222.135,250.278c-1.225-0.368-1.223-0.989,0.8-2.028c3.83-1.725,6.949-3.809,8.378-6.148
					c-1.266,1.162-4.443,3.071-7.652,3.754c-3.208,0.684-6.304,1.08-6.448,2.207c-0.144,1.128,2.918,2.063,4.915,2.217
					L222.135,250.278z"/>
				<path style="fill:#F28F8F;" d="M219.608,256.237c2.247,0.389,4.497,0.694,6.751,0.92c2.242,0.266,4.526,0.393,6.68,0.74
					c2.251,0.326,7.595,1.066,9.854,1.283c2.254,0.243,4.52,0.376,6.802,0.556c-4.268-1.519-11.886-2.673-16.326-3.384
					c-2.317-0.341-4.591-0.395-6.881-0.415C224.203,255.916,221.909,256.018,219.608,256.237"/>
				<path style="fill:#F28F8F;" d="M250.138,267.645c0.078-0.292,0.109-0.613,0.011-0.925c-0.105-0.309-0.329-0.566-0.576-0.773
					c-0.507-0.41-1.106-0.663-1.7-0.88c-1.205-0.404-2.455-0.622-3.683-0.808c-2.445-0.375-8.01-1.14-10.497-1.36
					c-1.247-0.087-2.496-0.18-3.768-0.188c-1.299-0.007-2.555,0.111-3.781,0.193c-2.487,0.149-4.987,0.36-7.491,0.659
					c2.478,0.303,4.962,0.497,7.462,0.554c1.267,0.059,2.508-0.022,3.697,0.068c1.215,0.062,2.443,0.155,3.668,0.271
					c2.458,0.197,8.028,0.893,10.513,1.034c1.232,0.081,2.456,0.13,3.634,0.336C248.749,265.997,250.158,266.311,250.138,267.645z"
					/>
				<path style="fill:#F28F8F;" d="M218.337,270.549c0,0,4.156-0.068,6.54-0.191c2.385-0.123,9.98,0.487,9.98,0.487l0,0
					c-0.636-0.016-2.127,0.007-2.659,0.036c-3.17,0.178-6.624,0.707-6.624,0.707C223.18,270.998,218.337,270.549,218.337,270.549z"
					/>
			</g>
			<g>
				<path style="fill:#FFA8A7;" d="M329.76,263.092c4.206,0.519,8.003,2.298,11.997,3.574c4.247,1.357,8.877,2.224,13.344,2.067
					c5.061-0.177,11.813-2.094,14.563-6.742c3.428-5.792-2.909-13.476-7.086-17.129c-3.058-2.674-7.129-5.056-11.171-5.773
					c-2.924-0.519-5.602-0.9-8.619-0.898c-7.429,0.004-14.788-0.152-21.682-3.131c-8.121-3.509-14.095-4.334-19.219-5.522
					c-5.123-1.188-9.608-4.882-12.59-6.012c-2.07-0.784-3.011,2.487-1.012,5.919c1.379,2.368,4.454,4.517,8.247,6.322
					c3.076,1.662,1.416,2.24-2.163,2.384c-3.579,0.144-15.752,2.235-19.178,3.384c-3.425,1.149-6.599,3.021-5.654,5.157
					c0,0-5.73,0.476-5.499,3.495c0.231,3.019,4.891,4.402,4.891,4.402s0.227,2.517,4.851,3.224
					c2.607,0.399,10.238,0.173,13.016,0.387c3.166,0.244,6.608,0.846,6.608,0.846s-9.926,1.321-12.99,2.291
					c-3.479,1.102-2.555,3.512,1.872,4.457c4.427,0.944,16.331-1.192,20.125-0.383c3.794,0.81,7.638-0.169,14.653-0.614
					c3.777-0.24,7.448-2.032,11.235-1.834C328.789,262.989,329.276,263.033,329.76,263.092z"/>
				<path style="fill:#F28F8F;" d="M297.289,237.812c1.232-0.343,1.244-0.963-0.757-2.044c-3.793-1.805-6.868-3.954-8.247-6.322
					c1.241,1.189,4.378,3.163,7.572,3.913c3.193,0.75,6.28,1.211,6.401,2.341c0.12,1.13-2.961,2.002-4.96,2.113L297.289,237.812z"/>
				<path style="fill:#F28F8F;" d="M299.69,243.822c-2.254,0.342-4.511,0.6-6.768,0.779c-2.247,0.219-4.533,0.298-6.694,0.6
					c-2.257,0.279-7.616,0.907-9.879,1.077c-2.258,0.196-4.527,0.281-6.812,0.414c4.299-1.429,11.939-2.424,16.393-3.042
					c2.324-0.293,4.598-0.299,6.888-0.271C295.103,243.405,297.395,243.555,299.69,243.822"/>
				<path style="fill:#F28F8F;" d="M268.928,254.589c-0.072-0.293-0.096-0.615,0.009-0.925c0.112-0.307,0.34-0.559,0.592-0.761
					c0.515-0.4,1.119-0.64,1.718-0.844c1.213-0.378,2.467-0.571,3.699-0.731c2.453-0.324,8.032-0.972,10.523-1.141
					c1.249-0.061,2.499-0.127,3.772-0.11c1.299,0.02,2.552,0.165,3.776,0.272c2.483,0.201,4.978,0.464,7.476,0.816
					c-2.483,0.251-4.971,0.393-7.472,0.398c-1.268,0.033-2.507-0.074-3.698-0.01c-1.216,0.036-2.446,0.103-3.673,0.194
					c-2.462,0.146-8.045,0.725-10.533,0.813c-1.233,0.055-2.458,0.079-3.641,0.26C270.352,252.971,268.937,253.255,268.928,254.589z
					"/>
				<path style="fill:#F28F8F;" d="M300.662,258.158c0,0-4.154-0.155-6.535-0.328c-2.382-0.172-9.977,0.279-9.977,0.279l0,0
					c0.637-0.003,2.115,0.051,2.646,0.091c3.165,0.244,6.608,0.846,6.608,0.846C295.811,258.506,300.662,258.158,300.662,258.158z"
					/>
			</g>
		</g>
	</g>
</g>
<g id="Breath_00000179638686049992383620000015658867404313497489_">
	<g id="Breath">
		<path style="fill:#E0E0E0;" d="M315.558,115.548c0.775,1.262,1.324,2.641,2.184,3.857c0.822,1.163,1.859,2.192,3.001,3.041
			c2.372,1.763,5.326,2.674,8.278,2.377c6.325-0.637,12.234-7.132,9.523-13.597c-0.276-0.657,0.224-1.27,0.849-1.455
			c4.052-1.199,5.437-5.704,4.68-9.502c-0.853-4.271-3.903-7.527-8.422-7.397c-0.892,0.025-1.779,0.143-2.647,0.352
			c-0.824,0.198-1.643,0.625-2.483,0.713c-1.652,0.171-2.203-1.852-3.102-2.862c-2.459-2.765-6.326-3.847-9.827-2.563
			c-2.096,0.769-3.872,2.353-4.866,4.354c-0.993,1.999-1.104,4.206-0.995,6.394c0.013,0.261-0.438,1.081-0.7,0.562
			c-1.881-3.72-0.119-8.656,2.938-11.209c3.514-2.935,8.537-3.504,12.528-1.2c0.869,0.502,1.68,1.135,2.382,1.851
			c0.386,0.394,0.726,0.818,1.042,1.269c0.163,0.233,0.632,1.315,0.846,1.399c0.141,0.056,0.992-0.301,1.153-0.345
			c0.504-0.139,1.016-0.255,1.53-0.352c1.169-0.222,2.344-0.334,3.534-0.268c4.888,0.271,8.166,3.867,9.186,8.5
			c1.028,4.674-0.93,9.691-5.299,11.674c2.272,7.268-4.018,14.301-11.104,15.483c-3.527,0.588-7.106-0.263-10.057-2.266
			c-2.548-1.73-5.63-4.907-5.639-8.183C314.069,115.51,315.139,114.865,315.558,115.548z"/>
		<path style="fill:#E0E0E0;" d="M289.192,107.891c2.565-1.636,5.751-2.434,8.593-3.477c1.262-0.463,2.526-0.919,3.79-1.374
			c1.315-0.473,2.662-1.048,4.046-1.28c0.645-0.108,0.449,0.816,0.092,1.037c-1.293,0.8-2.769,1.317-4.18,1.872
			c-1.333,0.525-2.671,1.031-4.014,1.528c-1.28,0.473-2.56,0.947-3.844,1.405c-1.384,0.494-2.915,1.075-4.394,1.172
			C288.832,108.805,288.931,108.057,289.192,107.891z"/>
		<path style="fill:#E0E0E0;" d="M290.882,116.118c2.944-0.766,6.221-0.544,9.246-0.661c1.343-0.052,2.686-0.096,4.029-0.139
			c1.397-0.045,2.855-0.177,4.243,0.029c0.646,0.096,0.176,0.915-0.232,1.015c-1.477,0.363-3.04,0.399-4.553,0.493
			c-1.429,0.089-2.859,0.158-4.29,0.217c-1.363,0.056-2.727,0.112-4.09,0.152c-1.469,0.043-3.104,0.125-4.541-0.238
			C290.258,116.877,290.583,116.196,290.882,116.118z"/>
		<path style="fill:#E0E0E0;" d="M293.629,111.344c0.48-0.299,1.018-0.401,1.553-0.574c0.605-0.195,1.202-0.357,1.822-0.502
			c1.061-0.248,2.128-0.471,3.194-0.693c1.067-0.223,2.134-0.448,3.208-0.633c1.226-0.212,2.609-0.619,3.862-0.529
			c0.612,0.044,0.199,0.996-0.142,1.135c-0.995,0.406-2.119,0.554-3.165,0.788c-1.103,0.246-2.208,0.479-3.312,0.719
			c-1.094,0.237-2.184,0.488-3.275,0.734c-0.509,0.115-1.017,0.241-1.529,0.337c-0.629,0.118-1.571,0.358-2.232,0.28
			C293.09,112.343,293.331,111.531,293.629,111.344z"/>
	</g>
</g>
</svg>
